<?xml version="1.0" encoding="UTF-8"?>
<svg
  xmlns="http://www.w3.org/2000/svg"
  viewBox="0 0 1080 1080"
  role="img"
  aria-labelledby="af-logo-title af-logo-desc"
>
  <title id="af-logo-title">Logo AF</title>
  <desc id="af-logo-desc">Logo vectorial AF dividido en letra A, isotipo central y letra F.</desc>

  <style>
    #af-logo { --af-logo-color: #ffffff; }
    .logo-part { fill: var(--af-logo-color); }
  </style>

  <g id="af-logo">
    <path
      id="letter-a"
      class="logo-part"
      fill-rule="evenodd"
      clip-rule="evenodd"
      d="M 216 481 L 201 515 L 196 529 L 193 534 L 188 548 L 185 553 L 185 555 L 182 560 L 180 567 L 174 579 L 172 586 L 163 605 L 161 612 L 155 624 L 150 638 L 170 638 L 181 609 L 184 604 L 184 602 L 186 600 L 267 600 L 270 604 L 283 638 L 306 638 L 239 481 Z M 227 499 L 229 501 L 232 511 L 262 584 L 260 586 L 193 586 L 192 582 L 201 562 L 211 535 L 214 530 L 224 503 Z"
    />

    <path
      id="core-symbol"
      class="logo-part"
      fill-rule="evenodd"
      clip-rule="evenodd"
      d="M 297 311 L 289 319 L 332 366 L 371 412 L 396 445 L 418 479 L 430 502 L 439 525 L 445 551 L 446 576 L 445 577 L 445 586 L 444 587 L 443 597 L 435 623 L 423 648 L 402 681 L 378 712 L 360 733 L 279 818 L 287 825 L 342 775 L 374 748 L 416 716 L 449 695 L 480 680 L 501 673 L 514 671 L 515 670 L 522 670 L 523 669 L 550 669 L 551 670 L 557 670 L 558 671 L 563 671 L 575 674 L 592 680 L 613 690 L 645 710 L 664 724 L 700 754 L 741 792 L 785 836 L 793 828 L 750 781 L 707 730 L 679 692 L 660 661 L 649 638 L 641 615 L 638 602 L 638 597 L 637 596 L 636 569 L 637 568 L 637 560 L 638 559 L 640 545 L 649 519 L 660 497 L 675 473 L 695 446 L 722 414 L 759 374 L 803 329 L 796 322 L 792 324 L 758 356 L 708 399 L 666 431 L 631 453 L 602 467 L 584 473 L 572 476 L 560 477 L 559 478 L 532 478 L 531 477 L 525 477 L 524 476 L 519 476 L 490 467 L 469 457 L 437 437 L 418 423 L 382 393 L 341 355 Z M 534 530 L 550 531 L 556 533 L 566 539 L 573 546 L 577 552 L 582 567 L 581 583 L 579 589 L 573 599 L 566 606 L 560 610 L 545 615 L 529 614 L 523 612 L 513 606 L 506 599 L 502 593 L 497 578 L 498 562 L 500 556 L 506 546 L 513 539 L 519 535 Z"
    />

    <path
      id="letter-f"
      class="logo-part"
      d="M 926 481 L 824 481 L 824 638 L 843 638 L 843 570 L 844 569 L 914 569 L 914 555 L 844 555 L 843 554 L 843 499 L 844 498 L 926 498 Z"
    />
  </g>
</svg>
